# xmcd
#
# Track frame offsets:
#	150
#	15232
#	32848
#	48993
#	62279
#	77993
#	90056
#	102414
#	115970
#	131732
#	142900
#	160459
#	177509
#
# Disc length: 2589 seconds
#
# Revision: 0
# Processed by: cddbd v1.5.2PL0 Copyright (c) Steve Scherf et al.
# Submitted via: dBpowerAMP V4.0
#
DISCID=9f0a1b0d
DTITLE=Various Artist - Country Gentlemen Vol 1
DYEAR=2002
DGENRE=Country
TTITLE0=On a Summers night (Bellamy Brothers)
TTITLE1=Suzanne, Suzanne (The Campbells)
TTITLE2=Because it's love (Don Kelly)
TTITLE3=Crystal chandeliers (Clive Bruce)
TTITLE4=Boot scootin' boogie (Tommy Dell)
TTITLE5=Arms of Mary (Nicholis)
TTITLE6=Wings of a dove (Billy Forrest)
TTITLE7=I'll leave this world loving you (JJ Stephens)
TTITLE8=My Maria (Benson Brothers)
TTITLE9=Cotton fields (Cotton Pickers)
TTITLE10=Cracklin' Rosie (Jack Diamond)
TTITLE11=Hello again (Paul Buckby)
TTITLE12=Livin' on love (Allan Wilson)
EXTD=
EXTT0=
EXTT1=
EXTT2=
EXTT3=
EXTT4=
EXTT5=
EXTT6=
EXTT7=
EXTT8=
EXTT9=
EXTT10=
EXTT11=
EXTT12=
PLAYORDER=
